<?xml version="1.0" encoding="utf-8"?>
<!-- Svg Vector Icons : http://www.onlinewebfonts.com/icon -->
<!DOCTYPE svg PUBLIC "-//W3C//DTD SVG 1.1//EN" "http://www.w3.org/Graphics/SVG/1.1/DTD/svg11.dtd">
<svg version="1.1" xmlns="http://www.w3.org/2000/svg" xmlns:xlink="http://www.w3.org/1999/xlink" x="0px" y="0px" viewBox="0 0 1000 1000" enable-background="new 0 0 1000 1000" xml:space="preserve">
<metadata> Svg Vector Icons : http://www.onlinewebfonts.com/icon </metadata>
<g><g transform="translate(0.000000,512.000000) scale(0.100000,-0.100000)"><path d="M7412.2,4968.6c-41.5-53.3-41.5-55.3-41.5-2371V278.1H7104c-258.8,0-270.7-2-316.1-49.4c-49.4-47.4-49.4-51.4-49.4-424.8c0-373.4,0-377.4,49.4-424.8c45.4-47.4,57.3-49.4,318.1-49.4h268.7l-13.8-132.4c-45.4-420.8-278.6-731-598.7-798.2c-357.6-73.1-701.4,81-849.6,383.3c-59.3,120.5-122.5,371.4-122.5,484.1v59.3l268.7,7.9c264.8,7.9,270.7,7.9,316.1,61.2c45.5,53.3,47.4,65.2,47.4,420.8c0,361.6,0,365.5-49.4,412.9c-45.4,47.4-57.3,49.4-314.2,49.4h-264.7v474.2v474.2h254.9c235.1,0,256.9,4,304.3,45.4l53.3,45.4l-2,383.3v385.3l-51.4,45.4c-47.4,39.5-71.1,43.5-308.2,43.5h-254.9l7.9,302.3c11.9,499.9-37.5,786.4-195.6,1110.4c-349.7,723.1-1120.3,1116.3-2191.2,1116.3c-1290.2,0-2153.6-604.6-2333.4-1637.9c-19.8-104.7-29.6-298.4-29.6-527.5v-363.5H781.5c-377.4,0-373.4,4-361.6-533.5l5.9-320.1l55.3-47.4c53.3-45.4,69.2-47.4,312.2-47.4h254.9v-2637.7v-2639.7l49.4-47.4l47.4-49.4h703.4h703.4l51.4,51.4l49.4,49.4l-13.8,2637.7l-15.8,2635.7h270.7c260.8,0,272.7,2,318.1,49.4c49.4,47.4,49.4,51.4,49.4,424.8c0,373.4,0,377.4-49.4,424.8c-45.4,47.4-57.3,49.4-316.1,49.4h-266.7v173.9c0,377.4,132.4,608.6,414.9,719.2c92.9,37.5,148.2,43.5,375.4,43.5c326,0,446.5-37.5,592.7-185.7c132.4-130.4,181.8-268.7,193.6-537.4l7.9-213.4h-276.6c-377.4,0-359.6,23.7-359.6-478.1c0-369.5,0-373.4,49.4-420.8c45.4-47.4,57.3-49.4,316.1-49.4h266.7V752.3V278.1h-262.8c-258.8,0-264.8-2-312.2-51.4c-45.4-49.4-47.4-63.2-53.3-383.3c-9.9-497.9,2-513.7,412.9-513.7h209.4l11.8-191.7c23.7-345.8,138.3-780.4,292.4-1104.5c158.1-331.9,401.1-630.3,671.8-823.9c156.1-110.7,452.4-254.9,622.4-300.3l118.5-33.6l355.6,110.7c375.4,116.6,422.8,144.2,422.8,250.9c0,31.6-19.8,96.8-43.5,146.2c-23.7,47.4-39.5,92.9-33.6,96.8c4,5.9,102.7,49.4,215.4,98.8l207.5,88.9l5.9-292.4c5.9-322.1,2-310.2,152.1-411c98.8-65.2,167.9-67.2,306.3-5.9c539.4,239.1,849.6,527.5,1102.5,1021.5c175.8,345.8,290.4,762.7,314.2,1138.1l11.8,211.4h274.6c264.7,0,276.6,2,322.1,49.4c49.4,47.4,49.4,51.4,49.4,424.8c0,373.4,0,377.4-49.4,424.8c-45.4,47.4-57.3,49.4-316.1,49.4h-266.7v2321.6v2323.5l-49.4,47.4l-47.4,49.4h-701.4h-701.4L7412.2,4968.6z M8635.3,2491V278.1h-474.2h-474.2V2491v2212.9h474.2h474.2V2491z M4079.1,4328.5c409-86.9,667.8-211.4,902.9-430.7c235.1-221.3,375.4-466.3,452.5-800.2c41.5-179.8,47.4-296.4,43.5-669.8l-4-252.9h-474.2h-474.2v183.8c-2,515.7-229.2,857.5-683.6,1015.6c-140.3,49.4-181.8,53.3-422.8,53.3c-233.1,0-286.5-5.9-416.9-51.4c-454.4-150.2-687.6-495.9-689.6-1017.5v-183.8h-474.2h-474.2v331.9c0,379.4,17.8,515.7,100.8,764.6c81,245,193.6,426.8,371.4,602.6c227.2,223.3,434.7,331.9,808.1,426.8c272.7,69.2,458.4,85,873.3,77.1C3788.6,4371.9,3932.9,4360.1,4079.1,4328.5z M2945,1700.6v-158.1H1842.5H740l-3.9,158.1l-4,158.1h1106.5H2945V1700.6z M6086.5,1700.6v-158.1H4989.9H3893.3v158.1v158.1h1096.6h1096.6V1700.6z M2312.7,538.9c0-379.4,5.9-1517.4,13.8-2529l11.9-1841.5h-486h-488v2529v2529h474.2h474.2V538.9z M5474,752.3V278.1h-474.2h-474.2v474.2v474.2h474.2H5474V752.3z M6106.2-186.3v-148.2l-1100.5,3.9l-1102.5,5.9l-5.9,144.2l-5.9,142.3h1108.4h1106.4V-186.3z M9267.5-196.1v-158.1H8161.1H7054.6v158.1v158.1h1106.5h1106.5V-196.1z M5481.9-802.7c73.1-742.9,509.7-1163.7,1167.7-1126.2c573,33.6,938.5,418.9,1021.5,1076.8l23.7,181.8h464.3h462.3l-11.8-201.5c-41.5-644.1-335.9-1276.4-748.8-1606.3c-128.4-100.8-418.9-266.7-470.2-266.7c-11.9,0-19.8,126.5-19.8,353.7c0,326-4,355.6-41.5,405c-25.7,31.6-59.3,51.4-92.9,51.4c-29.6,0-250.9-81-494-179.8c-525.6-217.3-529.5-221.3-458.4-416.9c23.7-65.2,39.5-120.5,35.6-122.5c-2-3.9-92.9-35.6-199.5-71.1c-239.1-79-268.7-75.1-547.3,63.2c-181.8,88.9-231.2,126.4-397.1,290.4c-266.7,266.7-416.9,535.4-537.4,970.1c-55.3,195.6-112.6,529.5-112.6,657.9v73.1h472.2h470.2L5481.9-802.7z"/><path d="M6258.4-3163.8c-85-136.3-132.4-213.4-132.4-221.3c0-11.9,237.1-150.2,256.9-150.2s158.1,221.3,158.1,250.9c0,9.9-19.8,29.6-43.5,41.5c-25.7,11.9-83,43.5-128.4,73.1l-83,51.4L6258.4-3163.8z"/><path d="M7459.7-3148c-21.7-15.8-77.1-51.4-124.5-79l-85-53.3l65.2-118.5c35.6-67.2,75.1-124.5,88.9-130.4c23.7-9.9,262.8,124.5,262.8,146.2c0,19.8-146.2,262.8-158.1,260.8C7503.1-3122.3,7481.4-3134.2,7459.7-3148z"/><path d="M6738.5-3357.4v-158.1h158.1h158.1v158.1v158.1h-158.1h-158.1V-3357.4z"/><path d="M5881-3790.1c-39.5-63.2-71.1-124.5-71.1-134.4c0-21.7,239.1-164,258.8-154.1c17.8,11.9,160.1,250.9,152.1,256.9c-17.8,17.8-245,148.2-256.9,148.2C5956.1-3673.6,5918.5-3724.9,5881-3790.1z"/><path d="M7696.8-3744.7c-65.2-39.5-120.5-73.1-124.5-77.1c-7.9-5.9,136.3-245,154.1-256.9c23.7-13.8,256.9,128.4,256.9,156.1c-2,31.6-126.5,235.1-148.2,241C7823.2-3677.5,7762-3707.1,7696.8-3744.7z"/><path d="M6738.5-3989.7v-158.1h158.1h158.1v158.1v158.1h-158.1h-158.1V-3989.7z"/><path d="M5606.4-4250.5c-142.3-223.3-138.3-215.4-98.8-243c19.8-15.8,79-51.4,132.4-81l96.8-53.3l33.6,43.5c17.8,25.7,53.3,85,81,132.4c41.5,77.1,43.4,92.9,17.8,106.7c-15.8,9.9-75.1,45.4-132.4,79L5634-4205L5606.4-4250.5z"/><path d="M8020.8-4288l-132.4-79l79-138.3l81-136.3l61.3,35.5c33.6,21.8,94.8,57.3,136.3,81l73.1,45.4l-53.3,96.8C8159.1-4195.2,8169-4199.1,8020.8-4288z"/><path d="M6738.5-4621.9V-4780h158.1h158.1v158.1v158.1h-158.1h-158.1V-4621.9z"/></g></g>
</svg>