<?xml version="1.0" encoding="utf-8"?>
<!-- Svg Vector Icons : http://www.onlinewebfonts.com/icon -->
<!DOCTYPE svg PUBLIC "-//W3C//DTD SVG 1.1//EN" "http://www.w3.org/Graphics/SVG/1.1/DTD/svg11.dtd">
<svg version="1.1" xmlns="http://www.w3.org/2000/svg" xmlns:xlink="http://www.w3.org/1999/xlink" x="0px" y="0px" viewBox="0 0 1000 1000" enable-background="new 0 0 1000 1000" xml:space="preserve">
<metadata> Svg Vector Icons : http://www.onlinewebfonts.com/icon </metadata>
<g><g transform="translate(0.000000,511.000000) scale(0.100000,-0.100000)"><path d="M438.9,3856.2C197,3694.8,53.3,2953.9,113.8,2202.9c55.4-690.6,199.1-1025.8,458.7-1073.6c45.4-7.6,1837.3-10.1,3982-7.6c3876.2,7.6,3898.9,7.6,3969.4,58c98.3,73.1,226.8,340.2,277.2,579.7c58,282.3,60.5,1272.7,0,1555c-52.9,259.6-131.1,433.5-236.9,524.2l-85.7,75.6h-3977h-3977L438.9,3856.2z M8521.4,3493.2c113.4-168.9,148.7-403.2,148.7-977.9c0-425.9-10.1-559.5-45.4-690.5c-90.7-332.7-176.4-431-284.8-327.6c-191.6,178.9-269.7,1081.2-148.7,1673.5C8274.4,3568.8,8392.9,3684.8,8521.4,3493.2z"/><path d="M8382.8,665.5c-27.7-27.7-63-98.3-78.1-158.8c-98.3-393.1-320.1-846.8-685.5-1396.2c-153.7-234.4-322.6-516.7-373-627.6c-461.2-985.4-73.1-1945.7,864.4-2147.3c252-52.9,728.4-32.8,937.5,40.3c544.4,194,851.8,660.3,851.8,1300.4c0,471.3-153.7,902.3-504.1,1424C9053.2-388,8821.3,88.3,8730.6,461.3c-17.6,75.6-55.5,163.8-83.2,196.6C8584.4,728.5,8450.8,733.5,8382.8,665.5z M7631.8-1857.3c-2.5-35.3-22.7-126-45.4-201.6c-90.7-307.5-12.6-713.2,186.5-937.5c83.2-93.3,98.3-158.8,47.9-178.9c-55.5-17.6-108.4,25.2-204.1,163.8c-138.6,201.6-196.6,395.7-199.1,652.7c0,211.7,52.9,473.8,113.4,546.9C7573.8-1759,7636.8-1786.7,7631.8-1857.3z"/></g></g>
</svg>