<?xml version="1.0" encoding="utf-8"?>
<!-- Svg Vector Icons : http://www.onlinewebfonts.com/icon -->
<!DOCTYPE svg PUBLIC "-//W3C//DTD SVG 1.1//EN" "http://www.w3.org/Graphics/SVG/1.1/DTD/svg11.dtd">
<svg version="1.1" xmlns="http://www.w3.org/2000/svg" xmlns:xlink="http://www.w3.org/1999/xlink" x="0px" y="0px" viewBox="0 0 1000 1000" enable-background="new 0 0 1000 1000" xml:space="preserve">
<metadata> Svg Vector Icons : http://www.onlinewebfonts.com/icon </metadata>
<g><path d="M571.9,81.6c0-10.7-8.6-19.3-19.4-19.3h-105c-10.7,0-19.3,8.6-19.3,19.3v0.5c0,10.7,8.6,19.3,19.3,19.3h105c10.7,0,19.4-8.6,19.4-19.3V81.6z"/><g><path d="M722.1,10H277.9c-43.2,0-78.4,35.1-78.4,78.4v823.2c0,43.3,35.2,78.4,78.4,78.4h444.3c43.3,0,78.4-35.2,78.4-78.4V88.4C800.5,45.1,765.4,10,722.1,10z M500,960.6c-23.4,0-42.5-19.1-42.5-42.5c0-23.4,19.1-42.5,42.5-42.5c23.4,0,42.5,19.1,42.5,42.5C542.5,941.5,523.4,960.6,500,960.6z M735.2,833.2c0,7.2-5.9,13.1-13.1,13.1H277.9c-7.2,0-13.1-5.9-13.1-13.1V166.8c0-7.2,5.9-13.1,13.1-13.1h444.3c7.2,0,13.1,5.9,13.1,13.1V833.2z"/><path d="M449.3,415.2c0-26,24.4-44.2,55.7-44.2c46.3,0,81.7,32.3,81.7,32.3l29.1-54.7c0,0-31.2-32.8-91.6-38v-47.9h-44.7v48.9c-57.7,9.4-97.8,51-97.8,104.6c0,111.8,175.8,105.6,175.8,168c0,30.2-25.5,44.7-53.6,44.7c-52,0-92.1-39-92.1-39l-36.4,50.5c0,0,36.9,41.1,104.1,48.9v47.9h44.7v-47.9c63.5-8.3,100.4-53.6,100.4-106.6C624.6,466.2,449.3,477.1,449.3,415.2z"/></g></g>
</svg>