<?xml version="1.0" encoding="utf-8"?>
<!-- Svg Vector Icons : http://www.onlinewebfonts.com/icon -->
<!DOCTYPE svg PUBLIC "-//W3C//DTD SVG 1.1//EN" "http://www.w3.org/Graphics/SVG/1.1/DTD/svg11.dtd">
<svg version="1.1" xmlns="http://www.w3.org/2000/svg" xmlns:xlink="http://www.w3.org/1999/xlink" x="0px" y="0px" viewBox="0 0 1000 1000" enable-background="new 0 0 1000 1000" xml:space="preserve">
<metadata> Svg Vector Icons : http://www.onlinewebfonts.com/icon </metadata>
<g><path d="M500,10C229.4,10,10,229.4,10,500s219.4,490,490,490s490-219.4,490-490S770.6,10,500,10z M832.6,832.6c-43.2,43.2-93.5,77.1-149.5,100.8c-58,24.5-119.6,37-183.1,37c-63.5,0-125.1-12.4-183.1-37c-56-23.7-106.3-57.6-149.5-100.8c-43.2-43.2-77.1-93.5-100.8-149.5c-24.5-58-37-119.6-37-183.1c0-63.5,12.4-125.1,37-183.1c23.7-56,57.6-106.3,100.8-149.5c43.2-43.2,93.5-77.1,149.5-100.8c58-24.5,119.6-37,183.1-37c63.5,0,125.1,12.4,183.1,37c56,23.7,106.3,57.6,149.5,100.8c43.2,43.2,77.1,93.5,100.8,149.5c24.5,58,37,119.6,37,183.1c0,63.5-12.4,125.1-37,183.1C909.8,739.1,875.8,789.4,832.6,832.6z"/><path d="M351.8,427.7c21.1,0,29.4-17.8,29.4-37.1c0-19.3-8.3-37-29.4-37c-20.5,0-28.3,17.7-28.3,37C323.5,409.8,331.3,427.7,351.8,427.7z M352.3,367.9c11.6,0,11.9,13.3,11.9,22.7c0,9.4-0.3,22.8-11.9,22.8c-11.2,0-11.8-13.4-11.8-22.8C340.5,381.1,341.1,367.9,352.3,367.9z"/><path d="M449.7,427.7c21.1,0,29.4-17.8,29.4-37.1c0-19.3-8.3-37-29.4-37c-20.5,0-28.3,17.7-28.3,37C421.4,409.8,429.2,427.7,449.7,427.7z M450.3,367.9c11.6,0,11.9,13.3,11.9,22.7c0,9.4-0.3,22.8-11.9,22.8c-11.2,0-11.8-13.4-11.8-22.8C438.4,381.1,439.1,367.9,450.3,367.9z"/><path d="M547.7,427.7c21.1,0,29.4-17.8,29.4-37.1c0-19.3-8.3-37-29.4-37c-20.5,0-28.3,17.7-28.3,37C519.4,409.8,527.2,427.7,547.7,427.7z M548.2,367.9c11.6,0,11.9,13.3,11.9,22.7c0,9.4-0.3,22.8-11.9,22.8c-11.2,0-11.8-13.4-11.8-22.8C536.4,381.1,537,367.9,548.2,367.9z"/><path d="M645.6,427.7c21.1,0,29.4-17.8,29.4-37.1c0-19.3-8.3-37-29.4-37c-20.5,0-28.3,17.7-28.3,37C617.3,409.8,625.1,427.7,645.6,427.7z M646.2,367.9c11.6,0,11.9,13.3,11.9,22.7c0,9.4-0.3,22.8-11.9,22.8c-11.2,0-11.8-13.4-11.8-22.8C634.3,381.1,635,367.9,646.2,367.9z"/><path d="M499.2,134.7C297,134.7,133,298.7,133,501s164,366.3,366.3,366.3s366.3-164,366.3-366.3S701.5,134.7,499.2,134.7z M289.3,357.5c0-20.4,16.6-37,37-37h345.9c20.4,0,37,16.6,37,37v61c0,20.4-16.6,37-37,37H326.3c-20.4,0-37-16.6-37-37L289.3,357.5L289.3,357.5z M329.5,706c-50.8,0-91.9-41.2-91.9-91.9c0-50.8,41.2-91.9,91.9-91.9c50.8,0,91.9,41.2,91.9,91.9C421.4,664.8,380.3,706,329.5,706z M519.4,823.5c-50.8,0-91.9-41.2-91.9-91.9s41.2-91.9,91.9-91.9c50.8,0,91.9,41.2,91.9,91.9S570.2,823.5,519.4,823.5z M701,706c-50.8,0-91.9-41.2-91.9-91.9c0-50.8,41.2-91.9,91.9-91.9c50.8,0,91.9,41.2,91.9,91.9C793,664.8,751.8,706,701,706z"/><path d="M338.6,611.3l-11.4-51l-11.4,51c-11.2,4.5-19.1,15.5-19.1,28.3c0,16.9,13.7,30.5,30.5,30.5c16.9,0,30.5-13.7,30.5-30.5C357.7,626.8,349.8,615.8,338.6,611.3z"/><path d="M717,611.3l-11.4-51l-11.4,51c-11.2,4.5-19.1,15.5-19.1,28.3c0,16.9,13.7,30.5,30.5,30.5c16.9,0,30.5-13.7,30.5-30.5C736.1,626.8,728.2,615.8,717,611.3z"/><path d="M530.8,732l-11.4-51L508,732c-11.2,4.5-19.1,15.5-19.1,28.3c0,16.9,13.7,30.5,30.5,30.5c16.9,0,30.5-13.7,30.5-30.5C549.9,747.5,542,736.5,530.8,732z"/></g>
</svg>