<?xml version="1.0" encoding="iso-8859-1"?>
<!-- Generator: Adobe Illustrator 19.0.0, SVG Export Plug-In . SVG Version: 6.00 Build 0)  -->
<svg version="1.1" id="Layer_1" xmlns="http://www.w3.org/2000/svg" xmlns:xlink="http://www.w3.org/1999/xlink" x="0px" y="0px"
	 viewBox="0 0 512 512" style="enable-background:new 0 0 512 512;" xml:space="preserve">
<g>
	<path style="fill:#ECF0F1;" d="M326.621,256c0,63.382-51.377,114.759-114.759,114.759S97.103,319.382,97.103,256
		s51.377-114.759,114.759-114.759S326.621,192.618,326.621,256"/>
	<g>
		<path style="fill:#C03A2B;" d="M211.862,247.172c-4.873,0-8.828,3.955-8.828,8.828s3.955,8.828,8.828,8.828
			c4.873,0,8.828-3.955,8.828-8.828S216.735,247.172,211.862,247.172 M211.862,282.483c-14.601,0-26.483-11.882-26.483-26.483
			s11.882-26.483,26.483-26.483c14.601,0,26.483,11.882,26.483,26.483S226.463,282.483,211.862,282.483"/>
		<path style="fill:#C03A2B;" d="M211.862,247.172c-4.882,0-8.828-3.946-8.828-8.828v-35.31c0-4.882,3.946-8.828,8.828-8.828
			c4.882,0,8.828,3.946,8.828,8.828v35.31C220.69,243.226,216.744,247.172,211.862,247.172"/>
		<path style="fill:#C03A2B;" d="M211.862,379.586c-4.882,0-8.828-3.946-8.828-8.828v-44.138c0-4.882,3.946-8.828,8.828-8.828
			c4.882,0,8.828,3.946,8.828,8.828v44.138C220.69,375.64,216.744,379.586,211.862,379.586"/>
		<path style="fill:#C03A2B;" d="M211.862,176.552c-4.882,0-8.828-3.946-8.828-8.828v-26.483c0-4.882,3.946-8.828,8.828-8.828
			c4.882,0,8.828,3.946,8.828,8.828v26.483C220.69,172.606,216.744,176.552,211.862,176.552"/>
	</g>
	<g>
		<path style="fill:#BDC3C7;" d="M229.517,0c-34.154,0-61.793,27.639-61.793,61.793v88.276c13.586-5.676,28.495-8.828,44.138-8.828
			s30.552,3.151,44.138,8.828v-35.31c0-19.518,15.793-35.31,35.31-35.31h123.586V0H229.517z"/>
		<path style="fill:#BDC3C7;" d="M291.31,432.552c-19.518,0-35.31-15.793-35.31-35.31v-35.31
			c-13.586,5.676-28.495,8.828-44.138,8.828s-30.552-3.151-44.138-8.828v88.276c0,34.154,27.639,61.793,61.793,61.793h185.379
			v-79.448H291.31z"/>
	</g>
	<g>
		<path style="fill:#C03A2B;" d="M326.621,256c0-2.984-0.221-5.906-0.45-8.828h-43.688c-4.882,0-8.828,3.946-8.828,8.828
			s3.946,8.828,8.828,8.828h43.688C326.4,261.906,326.621,258.984,326.621,256"/>
		<path style="fill:#C03A2B;" d="M141.241,247.172H97.554c-0.23,2.922-0.45,5.844-0.45,8.828c0,2.984,0.221,5.906,0.45,8.828h43.688
			c4.882,0,8.828-3.946,8.828-8.828S146.123,247.172,141.241,247.172"/>
	</g>
</g>
<g>
</g>
<g>
</g>
<g>
</g>
<g>
</g>
<g>
</g>
<g>
</g>
<g>
</g>
<g>
</g>
<g>
</g>
<g>
</g>
<g>
</g>
<g>
</g>
<g>
</g>
<g>
</g>
<g>
</g>
</svg>
