<?xml version="1.0" encoding="utf-8"?>
<!-- Svg Vector Icons : http://www.onlinewebfonts.com/icon -->
<!DOCTYPE svg PUBLIC "-//W3C//DTD SVG 1.1//EN" "http://www.w3.org/Graphics/SVG/1.1/DTD/svg11.dtd">
<svg version="1.1" xmlns="http://www.w3.org/2000/svg" xmlns:xlink="http://www.w3.org/1999/xlink" x="0px" y="0px" viewBox="0 0 1000 1000" enable-background="new 0 0 1000 1000" xml:space="preserve">
<metadata> Svg Vector Icons : http://www.onlinewebfonts.com/icon </metadata>
<g><g transform="translate(0.000000,512.000000) scale(0.100000,-0.100000)"><path d="M1685.9,4771.1v-248.9H1504c-191.5,0-281.5-24.9-304.4-86.2c-5.8-17.2-11.5-279.6-11.5-584c0-683.6-19.2-637.6,281.5-651l206.8-9.6l9.6-1723.3l9.6-1723.3l51.7-183.8c128.3-465.3,335.1-832.9,645.3-1137.4l116.8-113v394.5c0,517-26.8,480.6,367.6,494l293,9.6l9.6,292.9c13.4,394.5-21.1,367.6,490.2,367.6c375.3,0,390.6-1.9,436.6-42.1c76.6-67,82.3-149.4,21.1-222.1l-51.7-61.3h-285.3H3505v-270c0-400.2,0-398.3-388.7-400.2h-281.5l3.8-405.9l5.7-405.9l153.2-82.3c162.8-86.2,405.9-172.3,641.5-227.8c132.1-30.7,308.3-34.5,2083.3-40.2l1937.8-7.7v-195.3c1.9-122.6,9.6-206.8,24.9-225.9c53.6-69,97.7-74.7,645.3-74.7h540l55.5,55.5c53.6,55.5,55.5,61.3,55.5,248.9v193.4h248.9h248.9V-801V692.6h-247h-247l-7.7,212.5c-7.7,306.4,38.3,285.3-656.8,285.3c-693.2,0-647.2,19.1-660.6-281.5l-9.6-206.8H6310.2H4969.8l-86.2,47.9c-46,26.8-111.1,86.2-143.6,130.2l-57.4,84.3l-5.7,1118.2l-3.8,1118.2h197.2c187.7,0,201.1,1.9,245.1,49.8l45.9,49.8v564.9v564.9l-53.6,46c-49.8,42.1-70.9,46-245.1,46H4673v248.9V5020H3179.5H1685.9V4771.1z M4826.2,3861.5v-335.1H3169.9H1513.6v335.1v335.1h1656.3h1656.3V3861.5z M8652-795.2l-5.7-1662l-329.3-5.8l-331.3-3.8V-801V864.9h335.1h335.1L8652-795.2z"/><path d="M946.8-483.1c-82.3-36.4-118.7-137.9-76.6-216.4c15.3-28.7,113-137.9,218.3-239.4c218.3-214.5,268.1-233.6,369.6-132.1c61.3,63.2,68.9,111.1,28.7,189.6c-32.6,61.3-379.1,405.9-409.8,405.9c-11.5,0-30.6,3.8-46,9.6C1017.7-462.1,979.4-469.7,946.8-483.1z"/><path d="M592.6-1323.7c-88.1-67-95.7-168.5-19.1-245.1l55.5-55.5h310.2c302.5,0,308.3,1.9,354.2,47.9c65.1,63.2,65.1,166.6,0,229.8c-46,47.9-51.7,47.9-358.1,47.9C720.9-1300.7,613.6-1306.5,592.6-1323.7z"/><path d="M1088.5-1982.4c-224-220.2-256.6-270-227.9-354.2c26.8-78.5,72.8-109.1,160.8-111c67,0,90,15.3,262.3,183.8c103.4,99.6,197.2,206.8,210.6,237.4c46,113-30.6,229.8-149.4,229.8C1287.7-1796.7,1255.1-1819.6,1088.5-1982.4z"/><path d="M2390.6-2556.8c-65.1-72.8-566.8-783.1-608.9-867.4c-97.7-191.5-139.8-430.8-113-628c51.7-363.8,335.1-653,706.6-716.2c551.5-93.8,1062.7,398.3,978.5,944c-24.9,149.4-93.8,348.5-168.5,476.8c-67,116.8-495.9,723.8-557.2,790.8c-36.4,38.3-67,51.7-118.7,51.7C2457.6-2505.1,2427-2518.6,2390.6-2556.8z"/></g></g>
</svg>