<?xml version="1.0" encoding="utf-8"?>
<!-- Svg Vector Icons : http://www.onlinewebfonts.com/icon -->
<!DOCTYPE svg PUBLIC "-//W3C//DTD SVG 1.1//EN" "http://www.w3.org/Graphics/SVG/1.1/DTD/svg11.dtd">
<svg version="1.1" xmlns="http://www.w3.org/2000/svg" xmlns:xlink="http://www.w3.org/1999/xlink" x="0px" y="0px" viewBox="0 0 1000 1000" enable-background="new 0 0 1000 1000" xml:space="preserve">
<metadata> Svg Vector Icons : http://www.onlinewebfonts.com/icon </metadata>
<g><g transform="translate(0.000000,511.000000) scale(0.100000,-0.100000)"><path d="M7033.7,3354.8c-40.3-40.3-78.1-47.3-255.7-47.3c-232,0-265.2-16.6-265.2-135c0-106.5,49.7-125.5,329.1-125.5h239.1v-146.8c-2.4-139.7-7.1-151.5-75.8-196.5c-132.6-85.2-170.5-161-179.9-357.5c-4.7-94.7-18.9-175.2-30.8-175.2c-30.8,0-293.6-251-326.7-317.3c-33.1-61.6-35.5-61.6-326.7-61.6h-291.2l-33.1,78.1c-80.5,194.1-310.2,272.3-490.1,165.7c-90-52.1-163.4-196.5-163.4-312.5v-97.1h-610.8c-679.5,0-719.8-7.1-826.3-165.7l-54.4-78.1V-542.3v-1927.2H2997h-674.8v1167.2c0,1162.5,0,1167.2-52.1,1271.4c-99.4,189.4-101.8,189.4-1029.9,189.4H428.2v92.3c0,108.9-75.8,229.7-187,293.6c-101.8,61.6-113.6,42.6-135-239.1c-16.6-251,2.4-1145.9,28.4-1231.1c21.3-71,87.6-52.1,196.5,54.4c63.9,63.9,82.9,101.8,92.3,198.9l11.8,120.7h587.2H1612v-1179c0-1340.1-7.1-1295.1,191.8-1396.9l104.2-54.5l1117.5,7.1c1084.3,7.1,1117.5,9.5,1181.4,56.8c35.5,26.1,87.6,78.2,113.6,113.7c49.7,63.9,49.7,87.6,56.8,1993.5l4.7,1927.2h388.3h385.9l14.2-94.7c7.1-49.7,33.2-123.1,61.6-161c61.6-90,222.5-156.3,326.7-135c99.4,18.9,217.8,118.4,260.4,220.2l33.2,82.9l331.5-11.8c329.1-11.8,333.8-14.2,430.9-87.6c54.5-42.6,168.1-108.9,253.3-151.5c135-66.3,175.2-73.4,355.1-73.4c243.8,0,416.7,61.6,570.6,196.5c127.9,111.3,189.4,120.7,539.8,92.3c421.4-33.1,466.4-71,492.5-400.1c14.2-184.7,14.2-184.7-61.6-255.7c-94.7-87.6-104.2-227.3-18.9-305.4c52.1-49.7,73.4-52.1,551.6-52.1c490.1,0,499.6,0,549.3,54.5c73.4,75.8,71,213.1-4.7,288.8c-49.7,49.7-56.8,82.9-71,348c-47.4,821.5-241.5,1096.2-868.9,1228.8c-123.1,26-367,52.1-542.2,61.6l-319.6,14.2l-82.9,118.4c-45,66.3-130.2,156.3-189.4,201.2c-104.2,80.5-106.5,85.2-120.7,243.9c-19,187-78.1,303-201.2,376.4c-78.2,49.7-80.5,56.8-80.5,191.8V3047h248.6c217.8,0,255.7,7.1,295.9,47.4c56.8,56.8,59.2,90,9.5,161c-33.2,47.4-56.8,52.1-243.9,52.1c-177.6,0-215.4,7.1-251,47.3c-33.2,37.9-73.4,47.4-194.2,47.4C7111.8,3402.1,7071.6,3392.6,7033.7,3354.8z"/><path d="M9190.6-835.8c-144.4-310.1-196.5-492.5-168.1-587.2c35.5-125.5,73.4-175.2,179.9-220.2c135-61.6,258.1-30.8,362.3,85.2c123.1,139.7,99.4,284.1-116,741c-63.9,132.6-120.7,241.5-125.5,241.5S9259.2-691.4,9190.6-835.8z"/></g></g>
</svg>